<mxfile host="app.diagrams.net" modified="2023-06-19T16:07:37.533Z" agent="Mozilla/5.0 (Windows NT 10.0; Win64; x64) AppleWebKit/537.36 (KHTML, like Gecko) Chrome/114.0.0.0 Safari/537.36" version="21.5.0" etag="IqCl6gYYQZ4lQClvZN4y" type="github">
  <diagram name="Страница 1" id="z-O6wU_CfJ_a4sq0bVAk">
    <mxGraphModel>
      <root>
        <mxCell id="0" />
        <mxCell id="1" parent="0" />
      </root>
    </mxGraphModel>
  </diagram>
</mxfile>
